<?xml version="1.0" encoding="UTF-8"?>
<svg id="Livello_1" data-name="Livello 1" xmlns="http://www.w3.org/2000/svg" viewBox="0 0 36.29 51.4">
  <defs>
    <style>
      .cls-1 {
        fill: #000;
        stroke-width: 0px;
      }
    </style>
  </defs>
  <path class="cls-1" d="M29.19,10.1c-.1.2-.3-.2-.5-.2.3.4.7.9.3,1.3-.2-.2-.1-.6-.4-.6-.2.2,0,.3.2.4-.3,0-.8-.5-1.1-.7-.1.3.6.4.4.9-.2-.1-.3-.2-.5-.3.4.5,1,.7,1.3,1.2-.4.2,0,.6-.2,1-.3.1-.2-.3-.2-.5-.4.3-.7-.1-1-.3-.2.1.2.3.3.5-.1.2-.2.2-.3.1.2.4.6.5.9.8,0,.4,0,.9-.1,1.2-.3-.1-.7-.2-.9-.5-.2,0,.1.2-.1.2.2,0,.4.4-.1.2.1.4.5.5.8.7.1.3,0,.6.1,1-.1.2-.6-.3-.3.1-.2.2-.6-.2-.8-.3-.3,0,.1.6-.3.5.6.4,1.2.7.9,1.6-.5.1.1-.2-.2-.2-.1,0-.1.3,0,.3-.1.2-.6-.2-.8-.3,0,.3.1.2-.3.5.3.3.7.4,1,.6-.2.2.1.4.1.7-.1.1-.6.3-.4.4-.2.2-.6-.3-.9-.3-.2,0,.2.5-.3.4.4.5,1.3.4,1.2,1.4-.4-.1-.5.2-.4.5-.3-.1-.7-.2-.9-.4-.4.1,0,.5-.6.3.3.5,1.1.5,1.5.8-.1.3.2.4,0,.6s-.3,0-.5,0c0,.2-.1.6.2.5-.5.2-.9-.3-1.4-.3-.6,0-.7.5-1.2.6-.3-.8-.6-1.4-.4-2.3.4.5.1-.5.2-1.4.1-.6.2-1.3.3-1.6h.2c0-.1-.1-.1-.2-.1.4-1.3.9-3.8.9-5.5-.1.8-.6,1.7-.6,2.9-.3-.4.1-1.2.2-2,.1-.5,0-1.1.3-1.4.3-.1.2.2.4.2.1-.4-.4-.3-.4-.5.1-.6.3-1,.3-1.7.1,0,0,.3.2.3-.1-.3-.1-1.3.1-2,0-.2-.1-.2-.2-.2.2-.3.6-.8.4-1.3.7.1-.1.8.1,1.4.3-.5.3-1.2.4-1.9-.4-.1-.1.5-.5.4.2-.3-.4-.6,0-1.3-.3-.1-.3-.5-.6-.6,0-.1.2-.1.3-.1-.4-.3-.9-.6-1.2-.7.5-.2-.3-.2,0-.6-.1-.2-.4-.1-.6-.2.1-.5-.7-.6-.4-1-.2,0-.2.1-.4.1-.4-.7-1.6-.6-2.3-1-.3.1-.5.4-.5.8-.4.5-1.5.9-2.1.2,0-.4.2-.6.3-.9.3.1-.1.3,0,.6.4-.6,1-1.1,1.4-1.7-.3.2-.2.1-.7.1,1.6-.6,3.3.3,4.6.7-.8.2-1.9-.3-3-.1-.2.4.5,0,.3.4.8-.2,1.6.1,2.6.3.6.1,1,.7,1.5.9s1,.3,1.4.7c.7.6,1.3,1.9,1.9,2.8.2.4.4,1.3.6,1.9-.3.2-.6-.4-.9-.4.5.5,1.2.8,1.6,1.4M25.79,7.1c0-.4.2-1.1-.1-1.3.1.4-.1,1.1.1,1.3ZM25.19,9.7c.3.2.3-.3.1-.3q0,.1-.1.1v.2h0ZM25.09,12.1v-.2h-.3v.2h.3ZM24.69,12.6c.2.5.2-.4,0,0ZM20.89,1.9c-.2,0-.3-.1-.3,0,.1,0,.1.1,0,.1-.2-.1-.4-.1-.2-.3h-.9c0,.5.5-.1.4.5.3-.1.3-.2.8-.1,0-.1.1-.1.2-.2h0Z"/>
  <path class="cls-1" d="M25.69,5.8c.3.2.1.9.1,1.3-.2-.2,0-.9-.1-1.3"/>
  <path class="cls-1" d="M25.29,9.4c.2,0,.2.4-.1.3v-.2c.1.1.1,0,.1-.1"/>
  <polyline class="cls-1" points="25.09 11.9 25.09 12.1 24.79 12.1 24.79 11.9 25.09 11.9"/>
  <path class="cls-1" d="M24.69,12.6c.2-.4.2.5,0,0"/>
  <path class="cls-1" d="M28.69,7.8v-.2.2M8.29,24.8c.1-.4.5,1.1,1.2,1.2-.8,0-1.4-1.5-2.2-1.6,0-.1,0-.2.1-.2-.1-.1-.2,0-.3-.2.1-1.3-.2-1.7.3-2.6.6,0,.4.7.4,1.3.2,0,0-.4.1-.6.3.4.2-.6.2-.6l.2.1c0-.1-.2-.5-.1-.8.1-.2.3-.2.5-.5-.1-.2-.6,0-.8-.1,0-.4.4-.9-.3-.9.3-.3.6-.5,1.3-.4.2,0-.1-.7.4-.6-.1-.2-.7,0-1-.1.1-.6,0-.6-.1-1.1.4-.2,1.5-.2,1.2-.8-.1-.2-.6,0-.8-.1.3-.4-.2-.6,0-1-.9.2.7-.4,1.1-.4.1-.2-.1-.4.2-.6,0-.1-.6.1-.9,0,.1-.6-.2-.9.4-1.3.4.1.8.2.7.7.1-.4-.2-1.4.3-1.7-.2-.2-.5.4-1,.3.4-.3-.4-.6,0-.9-.2,0-.3,0-.3.2-.6-.7,1.7-.3,1.7-1.2,0-.2-.7-.2-.7,0-.1-.4-.6-.4-.6-.9.2,0,.1.3.3.3,0-.1.1-.3.3-.5-.2,0-.2.1-.4.1.5-.2,1.5-.2,1.6-.8-.5,0-.4,0-.8.1-.1-.3-.6-.3-.5-.8.3-.3-.2.3.2.5-.2-.1.4-.7.1-.7.3-.5,1.3-.2,1.3-1-.1-.1-.6.1-.8.1,0-.3-.4-.4-.1-.7-.3,0-.1.5-.4.2,0-.7.8-.6,1.2-.9.3-.2.3-.4.6-.5,0-.8-.1-.8.1-1.5.2,0,0,.3.1.5.4-.2.1-.7,0-.8.2-.2.3.1.4.3.3-.4.6-.8.6-1.3-.2.3-.5.5-.6.9-.2-.7.8-1.2,1.7-1.4-.2.3-.4.4-.6.7.6-.1,1.2-1.2,2.5-1-.3.2-.6.5-.8.8.8-.5,1.7-.9,3-.9-.2.1-.5.4-.7.2-.1.1,0,.3-.2.5,0,.3.2-.1.4,0,.3-.2-.3.3-.5.2.2.2-.1.5-.3.7.1.7-.1,1.2,0,2.1,0,.1.1.1.1.2,3,.2,5.1,1.2,7.2,2.2.2.3.1.8-.1,1.1-2.3-.5-4.4-2-7.4-2.1-.3,0-.2.4-.4.5.3.2,1.2.4,1.7.2,1.9.7,4.1,1.3,5.9,2.1,0,.2.1.2.1.4s-.1.1-.2.1c-.2.1-.2.5-.3.7-2.4-.7-4.3-1.9-7.2-2-.2.1-.1.3-.2.5.3.2,1.2.4,1.4.1-.1.2.3.2.5.4,2.1.4,3.9,1.1,5.6,1.9.1.5-.1.8-.2,1.2-.5-.1-1.5-.4-2.5-.8-.8-.3-1.8-.5-2.2-.7l.1-.2c-.4.3-.5-.2-1-.1.1-.1.1-.2.1-.3-.8.6-2.1-.6-2.4.6.4.1.9.5,1.3.3.1,0,.1-.6.1,0,1.7.6,4.3,1.2,6.1,2.1.1.5,0,.6-.1,1.1-2.4-.3-5.5-2-7.7-1.8-.2,0,0,.4-.2.5.4.2,1.2.4,1.8.2-.1.2.2.1.2.3,1.1.2,2.1.5,3.1.8s2,.5,2.7,1.2c-.1.3-.2.7-.3,1-.2-.3-.5,0-.7-.1-.3-.1-.7-.3-1-.4-1.8-.6-3.5-1.3-6-1.4-.2.1-.1.3-.2.5.2.4,1.2.1,1.5.4.2,0-.1-.3,0-.6.2.3.2.5.3.7,2.2.4,4.2.9,5.9,1.8.1.3,0,.8-.2,1.1-2.5-.2-5.3-2-8.3-1.6-.4-.2-.5-.2-1.1-.2.5.2.1.7,1.1.6.3-.1-.2-.4.3-.4,0,.2,0,.4-.1.5,2.9.5,5.7,1,8,2.1-.1.4-.2.9-.5,1.1-.1,0,0-.1,0-.2-1.6,0-3.8-1.1-5.9-1.4-.1.1-.2.2-.2.4-.1,0-.1-.2,0-.2-.5-.6-2.1-.5-2.5-.2,0,.2.1.2.1.3.2,0,.4,0,.4-.2-.1.4,1.5.7,1.9.4.1.1.3.3.4.4,2.1.3,4,.9,5.8,1.5.2.4-.1,1-.4,1.2-.1-.1.5-.6.1-1,.1.2-.3.9-.3.9-1.8,0-3.9-1.2-5.7-1.2-.6-.3-2.1-.6-2.9-.2.1.1.6.3,0,.3.5.5.6.9.4,1.8-.2,0,0-.5-.2-.6,0,.1-.1.5-.2.8.3.4.7,1.1.5,1.8.2-.3.2.4.4.8-.1-.1-.3-.3-.4-.3.2-.2-.2-.3-.3-.6.2,1,1.3,1.9,2.4,2.3-.2-.4-.7-.5-1-.8,1.2.4,3.2,2.2,5,1.2-.2-.2-.4.2-.7-.2-.1.2-.4.2-.5.3,0-.3-1.1-.3-.9-.6-.1,0-.3,0-.3.1-.3-.4-2-1-2.4-1.6-.1,0-.2,0-.2.1-.3-.2.1-.4.2-.5-.3-.3-.1.3-.5.2-.5-1.1-.5-2.1.2-3-.3.1-.4.4-.5.7-.4,0,.3-.4-.1-.4.9-1.2,2.3.2,2,1.7.2-.4.2-.2.1.2.3.1,0-.1.1.3.2,1,1.7,1.8,2.9,2.1.3.1.6,0,.8.1.2.1.4.3.6.4.1,0,.4-.2.2.1.3-.1.4-.2.7-.3-.2.3-.4.4-.6.7.5.3,1.1.6,1.9.6-.9.2-2.6.2-3.4-.1-.2,0-.2.2-.2.5,0,.4-.2-1.1-.6-.2.1-.1,0,.5,0,.6-.3.8-.8,3-.9,4.4,0,.2-.1.4-.1.6.1,1,.8.9,1.1,1.5h.8c-2,0-2.1-2.9-1-4-.3-1.3,2.1-1.4,2.9-.7-.4.2.3.4.4.7-.6-.4-1.4-.3-2-.6.2-.2.5-.2.8-.2-.9-.4-2.5.8-2.5,2,.2,0,.1-.4.4-.3-.4.7.6,1,.5,1.7-.5,0-.5-.4-.9-.5-.1,1.2,1.1,1.5,2.3,1.9h-1.6c-.8,0-1.2-.7-1.8-.7.3.1.4.5.7.7.2,2.3-.1,4.9-.1,7.1,0,.1.2.1.2.2-.2.3.1.8-.2.8-.5,0,.1-.3,0-.6-.2-2-.5-4.1-.5-6.4,0-.2.1-.4.1-.7-.1-.7-.6-1.2-.9-1.9-.4-.9,0-2.3.2-3.1-.1-.1-.6-.1-.7.2-.3-.1.1-.2,0-.4-.3-.1-.8.2-.8-.2-.2.3-.4.6-.4,1.1.2,0,.7.1,1.1.1-.1.2-.2.2-.3.1,0,.5.5,1,.2,1.4.4-.2.1-1.1.3-1.5,0-.1-.1-.3-.2-.3.3-.4.5.8.3,1.7,0,.2-.3.4-.3.7-.1.6.4,1.4-.1,1.1.1.2.3.3.4.5,0,1.1.3,1.7-.1,2.6-.1.3.5-.1.4.2.1.3-.2.1-.2.1-.1.3.1.8.1,1.2,0,.2-.2.1-.2.2,0,.2.1.4.1.6,0,.5-.2.9-.5,1.2-.3-2.6-.2-5.3-.8-8.3-.1,0-.1.2-.1.4-.2-.3-.4-.5-.4-.6v-.2c-.2-.2-1.1,0-.7-1.3-.2.3-.2.7-.2,1.1-.5-.5,0-1.4.1-2,.2.1,0,.5.1.8.3-1.2.4-2.6.6-3.8,0-.2,0-.3.2-.3-1.8-.9-3.6-1.7-4.2-3.7-.1.4-.1.5-.1.7s.4-.1.3.3c.2.1,0,.1-.1,0v-.2.2c.3,1.1,2.4,1.9,3.3,2.5-1.8-.8-3.9-1.5-4.5-3.4-.2,0-.1.6-.2.1-.4,0,0,.2,0,.4h0ZM24.29,7.7c-.1.5.4,0,0,0ZM16.99,28c-.3,0-.4-.2-.7-.1-.1.3.7.2.7.1ZM16.59,34.7c0,.1-.2.2.1.2-.2-.4-.2-1-.8-1,.1.5.1,1.1.7.8h0ZM16.39,4.6c0,.1.2.5.2.3-.2-.2.1-.2-.1-.4h-.4c.1.3-.2.2-.2.4.2,0,.2.1.4.1,0-.2,0-.4.1-.4h0ZM16.09,6.9v-.4c-.3,0-.6.3-.9.1.1,0,.1-.1,0-.1,0,.1-.1.2-.1.4h1ZM14.19,27.4c.6.2,1.4.7,2,.6-.7-.1-1.4-.7-2-.6h0ZM14.39,8.8c.4-.1,1.7.5,1.4-.1-.1.5-.4,0-.4-.2-.2.1-.7-.1-.7.1.4.1-.4-.1-.3.2h0ZM15.49,3.5c0-.3.6-.7.1-.9,0,.3-.4.7-.1.9ZM15.39,39.8c0-.1,0-.6-.1-.3-.1.4,0,.5.1.3ZM15.29,10.9c-.2,0,0-.1.1-.2-.2,0-.4,0-.3-.2-.5.2-.4-.3-1.1,0,.1,0,.1.1,0,.2.3.1.8.5,1.3.2h0ZM15.09,28.1v-.2h-.2v.2h.2ZM14.79,12.9c.1,0,.1-.1.1-.2-.4-.1-.7-.1-1.2-.2,0,.1,0,.4.1.4.3-.1.9.3,1.2.1-.1-.1-.2-.1-.2-.1h0ZM13.79,18.1c.2.6.7,0,1.2.4-.1-.3-.7-.3-1.2-.4ZM14.09,3.5c.1-.3.5-.8.4-1.1,0,.4-.7.7-.4,1.1ZM13.29,14.5c.2.3.8.6,1.2.4,0-.5-.7-.3-1.2-.4ZM13.99,33.5c0-.1-.1-.4-.1-.2,0,.1.1.3.1.2ZM13.79,3.5c0-.1.2-.2,0-.3,0,.1-.2.2,0,.3ZM12.69,26.8c.4.3.8.6,1.2.5-.1-.3-.6-.4-.9-.6-.7-.5-1.6-1.3-1.9-2.1-.1-.3,0-1-.2-.9,0,.5.3.9-.1,1.3.5.8,1.2,1.3,1.9,1.8h0ZM13.59,2.8c-.1-.1.4-.2.1-.3,0,.1-.4.2-.1.3ZM13.29,6.3c.3.2.3-.4.1-.4,0,.2,0,.3-.1.4ZM13.09,8.4c-.1-.4.4-1,0-1.1.1.5-.4.9,0,1.1ZM12.49,10.2c.4,0,.4-.9.3-1.1-.3.2-.2.8-.3,1.1ZM12.79,4.1c-.1,0-.2,0-.3-.1,0,.2-.2.2,0,.3,0-.2.3.1.3-.2h0ZM12.19,10.9c0,.3.4,1.2.3.9-.2-.2,0-.8-.3-.9ZM11.29,16.3c.1-.3.4-.9.2-1.1-.2.2-.6,1.1-.2,1.1ZM11.09,22.3c0-.1-.1-.4-.1-.2s.1.4.1.2ZM10.79,17.8c0-.2.4-.5.1-.6.1.3-.3.6-.1.6ZM7.89,23.8c0-.1-.1-.4-.1-.2,0,.1.1.4.1.2Z"/>
  <path class="cls-1" d="M24.29,7.7c.4,0-.1.5,0,0"/>
  <path class="cls-1" d="M24.09,9.8c.1,0,0,.6-.3.6,0-.3.1-.4.3-.6"/>
  <path class="cls-1" d="M23.59,16.6c.2.2.1.9-.2,1,0-.5.3-.6.2-1"/>
  <path class="cls-1" d="M23.39,47.2c.4,0,.2.9.1,1.1-.7.9-2.5,1-3.8.7.2-.4.7-.5,1.1-.7s.8-.5,1.1-.6c.6-.1,1.3.1,1.5-.5"/>
  <path class="cls-1" d="M23.49,17.7c0,.8-.2,1.7-.4,2.5-.1-.7.3-1.9.2-2.6.2,0,.2.1.2.1"/>
  <path class="cls-1" d="M22.89,20.5c.1-.3.1.2.1.3,0,.2-.2,0-.1-.3"/>
  <path class="cls-1" d="M22.99,17.2c0,.1-.1.1-.1,0-.1,0-.1.1-.1.2-.1,0-.1-.2-.2-.2,0-.1.2-.2.2-.3,0,.2.1.3.2.3"/>
  <path class="cls-1" d="M22.79,17.6c.3.1-.1.2,0,.4-.2,0,0-.3,0-.4"/>
  <path class="cls-1" d="M21.79,42.3c0-.2.4,0,.3.2-.2.1-.1-.1-.3-.2"/>
  <path class="cls-1" d="M20.19,31.5c.6.4.9,1.2.6,2.1.2-1.1-.6-2.4-1.8-1.7.5.7.9,1.5,1.4,2.1-.3.3-.1.4,0,.8-.5.1-.6.1-1.1.3-1.3-.2-1.2-2.5-.4-3.2,0-.4-.5-.3-.5-.7.1,0,.2-.1.2-.2.4.1.5.4.7.6.3,0,.5-.2.9-.1M20.09,34.7c-.2-.9-.8-1.4-1.2-2.1,0-.1-.1-.1-.2,0-.4,1.1,0,2.7,1.4,2.1h0Z"/>
  <path class="cls-1" d="M20.49,1.9c0-.1.1,0,.3,0,0,.1-.2.1-.2.2-.5-.1-.5,0-.8.1.1-.5-.4,0-.4-.5h.9c-.2.2.1.2.2.2.2.1.1,0,0,0"/>
  <path class="cls-1" d="M21.99,42.5h0M22.09,42.5h.1-.1c.1,0,0,0,0,0ZM20.19,44.5h0ZM16.79,46.8h0ZM20.09,44.5c.8.8.4,2-.1,2.7-.3.1-.3-.2-.5,0,.4.4-.3.3-.6.5,0-.1.2-.1.2-.2,0-.2-.2.1-.2-.1-.2,0-.1.3-.2.4-.6.1-1.3.1-2.1.1,0-.3-.4-.2-.1-.5-.3.1-.1.3-.1.5-.6-.2-1.5-.2-1.7-.9.1.1.2.3.4.3,0-.5-.6-.4-.5-1,.1,0,.1.1.2.1-.2-.4-.1-.4-.2-.9.2,0,.2.1.3.1.1-.4-.4-.2-.4-.6.5,0,0-.3,0-.5.3,0,.4.2.6.3,0-.3-.3-.3-.5-.4.1-.3.6.2,1,.3.5.1,1.5.1,2.4.1-.1.1,0,.2,0,.3.1,0,.1-.2.1-.4.9.1,1.2-.3,2-.2h0ZM19.89,45.6c-.1.4.2.8.4.5-.7-.1.1-1.1-.3-1.5-.2.2-.5.4-.7.1,0,.4-.6.3-.8.5,0-.2,0-.3-.2-.3.3.5-.5.4-1,.4v.9c1-.1,1.9-.3,2.6-.6h0ZM19.29,46.9c.3.1.9-.2.6-.4-.1.3-.5.2-.6.4ZM19.19,46.3c.3,0,.5,0,.5-.3-.2,0-.5,0-.5.3ZM19.39,47.5v-.2c-.1,0-.1-.1-.2-.1,0,.2,0,.4.2.3h0ZM18.39,46.8c.6-.1,1.3-.2,1.5-.6-.3.3-1.2.4-1.5.6ZM19.19,47.1c0-.4-.3,0-.4-.2,0,.5.3,0,.4.2ZM18.39,46.4c.2.1.8,0,.6-.3-.1.3-.5.1-.6.3ZM18.69,47.6c-.1-.2-.3.1-.3-.1.2-.3-.3.1-.4.2.1-.4-.2.2-.4-.2.2.3-.4.1-.3.3.5,0,1,0,1.4-.2h0ZM18.39,47c-.6.3.3.3,0,0ZM17.89,46.5c.2,0,.5.1.4-.2-.2.1-.4.1-.4.2ZM17.99,46.9v-.2h-.2v.2h.2ZM17.99,47.1c-.2.1-.7-.1-.7.1.2.1.4.2.7-.1ZM17.69,46.6c0-.1,0-.3-.1-.3-.4.3-.2.3.1.3ZM17.39,47.5c-.3,0-.2.2-.4,0,0,.1,0,.2-.1.3.3,0,.4-.2.5-.3h0ZM17.19,46.7c-.3.4.4.3,0,0ZM17.09,47.3v-.2h-.3v.2h.3ZM16.59,46.3c.1.7.8-.2.3.2,0-.1-.2-.1-.3-.2ZM16.89,46.2c.1-.3-.7-.2-.7-.1.4.1.4-.1.7.1ZM16.59,47.7c.1.1.3.1.3-.1-.1,0-.1-.1-.3-.1v.2h0ZM16.39,45.5c.1,0,.4.2.4,0-.4.2-.1-.3-.3-.3,0,.1-.1.1-.1.3l-.2-.3c-.1.1.2.5.2.3h0ZM16.39,47.1c-.4-.3-.2.3,0,0ZM15.99,45.6c0-.1.1-.2.1-.4-.3-.1-.4.1-.5.2,0-.5-.1-.1-.2-.1,0,0,0-.3-.1-.3s.1.3-.1.3-.1-.2-.3-.3c-.4.5.6.3.7.6q-.1,0-.1.1c.4.1.1-.5.5-.4,0,.1-.2.2,0,.3h0ZM15.79,46c-.1.2.4,0,.3-.1-.1-.1-.3,0-.3.1ZM15.39,47.2c0,.3.5.6.6.4-.1,0-.2-.1-.2-.2.1,0,.1-.1,0-.1,0,.3-.3-.1-.4-.1h0ZM15.79,47c0-.5-.6-.7-.4-1.1h-.2q-.1,0-.1.1c.2,0,0,.1-.1,0v.4c.5.1-.1-.2.2-.2.1,0,.1.2.1.3-.1,0-.3,0-.3.1.2.1.2.5.6.5,0,0,.1-.1.2-.1h0Z"/>
  <path class="cls-1" d="M20.29,46.1c-.2.3-.5-.1-.4-.5-.7.4-1.6.6-2.7.6v-.9c.5,0,1.3.1,1-.4.2,0,.2.1.2.3.3-.2.9,0,.8-.5.2.3.5.1.7-.1.6.4-.3,1.4.4,1.5"/>
  <path class="cls-1" d="M19.89,46.5c.3.2-.3.5-.6.4.1-.2.5-.1.6-.4"/>
  <path class="cls-1" d="M19.69,46c0,.3-.3.3-.5.3,0-.3.3-.3.5-.3"/>
  <path class="cls-1" d="M18.89,32.6c.4.7,1.1,1.2,1.2,2.1-1.4.6-1.8-1-1.4-2.1.1-.1.2-.1.2,0"/>
  <path class="cls-1" d="M19.49,48.9c.5.5-.5.5-.5.9-.5-.1-.4-.1.1-.3-.1-.1-.8.1-.9.3-.2,0,0-.1,0-.3h-.2c-.1,0-.1.1,0,.1,0,.1-.2.1-.3.1v.6c-.3,0-.5,0-.6-.1.4-.2-.1-.3.1-.5h-.2c-.1.5-1.2.1-1.3-.4,1,0,2.9.3,3.8-.4"/>
  <path class="cls-1" d="M18.89,44.4c-.2-.1.4-.2.6-.2-.1.2-.4.1-.6.2"/>
  <path class="cls-1" d="M19.39,47.3v.2c-.2,0-.2-.1-.2-.3.1,0,.1.1.2.1"/>
  <path class="cls-1" d="M19.09,38.7c-.3,0,.2-.2.3-.2-.1.1-.2.2-.3.2"/>
  <path class="cls-1" d="M19.89,46.3c-.3.4-.9.5-1.5.6.3-.3,1.2-.4,1.5-.6"/>
  <path class="cls-1" d="M18.79,46.9c.1.2.4-.2.4.2-.1-.2-.4.3-.4-.2"/>
  <path class="cls-1" d="M18.99,46.2c.2.3-.5.3-.6.3.1-.3.5-.1.6-.3"/>
  <path class="cls-1" d="M18.69,1.7v.3c-.3-.1-.2.2-.4.2-.2.3.2-.5.4-.5"/>
  <path class="cls-1" d="M18.39,47.5c.1.2.2-.1.3.1-.3.2-.9.2-1.4.2,0-.2.5.1.3-.3.3.3.5-.2.4.2.1-.1.6-.4.4-.2"/>
  <path class="cls-1" d="M18.39,47c.3.3-.6.3,0,0"/>
  <path class="cls-1" d="M18.29,46.3c.1.3-.2.2-.4.2,0-.1.2-.1.4-.2"/>
  <polyline class="cls-1" points="17.99 46.7 17.99 46.9 17.79 46.9 17.79 46.7 17.99 46.7"/>
  <path class="cls-1" d="M17.19,47.2c0-.2.5,0,.7-.1-.2.3-.4.2-.7.1"/>
  <path class="cls-1" d="M17.59,46.3c.1,0,.1.2.1.3-.3,0-.5,0-.1-.3"/>
  <path class="cls-1" d="M16.99,47.5c.2.2.1,0,.4,0-.2.1-.3.3-.5.3q.1-.1.1-.3"/>
  <path class="cls-1" d="M17.19,46.7c.4.3-.3.4,0,0"/>
  <path class="cls-1" d="M16.69,44.6c0-.2.4,0,.6-.1,0,.2-.4,0-.6.1"/>
  <polyline class="cls-1" points="17.09 47.1 17.09 47.3 16.79 47.3 16.79 47.1 17.09 47.1"/>
  <path class="cls-1" d="M16.89,46.5c.5-.4-.2.5-.3-.2.1.1.3.1.3.2"/>
  <path class="cls-1" d="M16.29,27.9c.4-.1.4.1.7.1,0,.1-.8.2-.7-.1"/>
  <path class="cls-1" d="M16.19,46.1c0-.1.9-.2.7.1-.3-.2-.3,0-.7-.1"/>
  <path class="cls-1" d="M16.89,47.6c-.1.2-.2.2-.3.1v-.2c.2,0,.2.1.3.1"/>
  <path class="cls-1" d="M15.69,49.9c.2-.2.7.3,1.1.2-.4.3-.7-.2-1.1-.2"/>
  <path class="cls-1" d="M16.79,45.5c0,.2-.4,0-.4,0,0-.2.1-.2.1-.3.3-.1,0,.4.3.3"/>
  <path class="cls-1" d="M16.69,34.9c-.3,0-.1-.1-.1-.2-.6.3-.6-.3-.7-.8.6,0,.6.7.8,1"/>
  <path class="cls-1" d="M16.59,4.8c0,.2-.2-.2-.2-.3-.1,0-.1.2-.1.4-.2,0-.2-.1-.4-.1,0-.2.3-.1.2-.4h.4c.2.3-.1.2.1.4"/>
  <path class="cls-1" d="M16.49,24.8c0,.3-.3,0-.2-.2.1,0,.1.2.2.2"/>
  <path class="cls-1" d="M16.19,45.2l.2.3c0,.2-.3-.2-.2-.3"/>
  <path class="cls-1" d="M16.39,47.1c-.2.3-.4-.3,0,0"/>
  <path class="cls-1" d="M16.09,45.2c0,.2-.1.3-.1.4-.2-.1,0-.2,0-.3-.4-.1-.1.5-.5.4q0-.1.1-.1c-.1-.3-1.1-.1-.7-.6.2.1.1.3.3.3s0-.3.1-.3.1.3.1.3c.1,0,.2-.4.2.1.1-.1.2-.3.5-.2"/>
  <path class="cls-1" d="M16.09,45.9c.1.1-.4.3-.3.1,0-.1.2-.2.3-.1"/>
  <path class="cls-1" d="M16.09,6.5v.4h-1c0-.2.1-.3.1-.4.1,0,.1.1,0,.1.3.2.6-.1.9-.1"/>
  <path class="cls-1" d="M16.19,28c-.6.1-1.4-.4-2-.6.6-.1,1.3.5,2,.6"/>
  <path class="cls-1" d="M15.99,47.6c-.1.2-.6-.1-.6-.4.1,0,.4.3.4.1.1,0,.1.1,0,.1,0,.1.1.2.2.2"/>
  <path class="cls-1" d="M15.59,41c.1-.3.4.5.1,0h-.1"/>
  <path class="cls-1" d="M15.59,42.2c-.2-.7.5.5.1,0,0-.1-.1,0-.1,0"/>
  <path class="cls-1" d="M15.79,8.7c.2.6-1,0-1.4.1-.1-.2.7,0,.3-.2,0-.2.5,0,.7-.1,0,.1.3.7.4.2"/>
  <path class="cls-1" d="M15.39,46c-.2.4.5.6.4,1.1-.1,0-.2,0-.2.1-.4,0-.4-.3-.6-.5,0-.1.2-.1.3-.1,0-.1,0-.3-.1-.3-.3,0,.2.3-.2.2v-.4c.1.1.3,0,.1,0q0-.1.1-.1h.2M15.39,47c.6.1,0-.6,0-.5.1.3.1.2,0,.5Z"/>
  <path class="cls-1" d="M15.79,48.5c-.4,0-.2-.6-.6-.6.3-.3.6.3.6.6"/>
  <path class="cls-1" d="M15.59,44.1c.2,0-.2.4.3.3-.2.3-1.5-.3-1.4-.9.2.1.2.5.5.6.4-.1,0-.3.2-.5.3,0,.1.4.4.3,0,.2-.4.1-.4.2-.1.2.5.2.4,0"/>
  <path class="cls-1" d="M15.59,43.6c.3-.3.2.5,0,0"/>
  <path class="cls-1" d="M15.59,2.6c.5.2-.1.5-.1.9-.3-.2.1-.6.1-.9"/>
  <path class="cls-1" d="M15.39,46.5c0-.2.6.6,0,.5.1-.3.1-.2,0-.5"/>
  <path class="cls-1" d="M15.29,39.5c.1-.3.1.2.1.3-.1.2-.2.1-.1-.3"/>
  <path class="cls-1" d="M15.39,10.7c-.1.1-.3.1-.1.2-.4.3-.9-.1-1.3-.2.1-.1.1-.2,0-.2.7-.3.6.2,1.1,0-.1.2.1.2.3.2"/>
  <path class="cls-1" d="M14.99,42.1c.3-.1.2.3.2.5-.2-.1-.2-.3-.2-.5"/>
  <polyline class="cls-1" points="15.09 27.9 15.09 28.1 14.89 28.1 14.89 27.9 15.09 27.9"/>
  <path class="cls-1" d="M14.99,32s0,.1-.1.1l.1-.1"/>
  <path class="cls-1" d="M15.39,22.9c-.5-.1-.5-.6-.9-.8.6-.4.9.2.9.8"/>
  <path class="cls-1" d="M14.89,12.7c0,.1,0,.2-.1.2,0,.1.1.1.2.1-.3.2-1-.2-1.2-.1-.1,0-.1-.2-.1-.4.5,0,.8.1,1.2.2"/>
  <path class="cls-1" d="M15.09,18.5c-.5-.4-1.1.2-1.2-.4.4.1,1,.1,1.2.4"/>
  <path class="cls-1" d="M14.59,2.4c.1.2-.3.7-.4,1.1-.4-.4.3-.7.4-1.1"/>
  <path class="cls-1" d="M14.59,14.9c-.4.2-1.1-.1-1.2-.4.4.1,1.1-.1,1.2.4"/>
  <path class="cls-1" d="M13.89,33.3c0-.2.1.1.1.2,0,.1-.1-.1-.1-.2"/>
  <path class="cls-1" d="M13.79,3.2c.2.1,0,.2,0,.3-.1-.1,0-.2,0-.3"/>
  <path class="cls-1" d="M11.19,25.3h0c.1,0,0,0,0,0M13.89,27.3c-.4.1-.9-.2-1.2-.5-.7-.5-1.4-1-1.9-1.9.4-.3.1-.7.1-1.3.2-.1.1.6.2.9.3.8,1.2,1.7,1.9,2.1.3.3.8.4.9.7h0Z"/>
  <path class="cls-1" d="M13.69,2.5c.3.1-.2.2-.1.3-.3-.1.1-.2.1-.3"/>
  <path class="cls-1" d="M13.59,25.9q0,.1-.1-.1l.1.1"/>
  <path class="cls-1" d="M13.39,5.9c.2,0,.2.5-.1.4.1-.1.1-.2.1-.4"/>
  <path class="cls-1" d="M13.39,25.7c0,.1.1.1.1.2,0-.1-.1-.1-.1-.2"/>
  <path class="cls-1" d="M13.09,7.3c.4,0-.1.7,0,1.1-.4-.2.1-.6,0-1.1"/>
  <path class="cls-1" d="M12.79,9.1c.1.1.1,1-.3,1.1.1-.3,0-.9.3-1.1"/>
  <path class="cls-1" d="M12.49,4c.1.1.2.1.3.1,0,.3-.3,0-.3.2-.2-.1,0-.2,0-.3"/>
  <path class="cls-1" d="M12.49,11.8c.1.3-.3-.6-.3-.9.3.1.1.7.3.9"/>
  <path class="cls-1" d="M12.69,2.3c-.4.6-.6,1.4-1,2-.4-.2.5-.9-.2-.8.3-.4.5-1.1,1.2-1.2M12.19,2.9c-.6.3-.3.6,0,0Z"/>
  <path class="cls-1" d="M12.19,2.9c-.3.6-.6.3,0,0"/>
  <path class="cls-1" d="M11.49,15.2c.2.2-.1.8-.2,1.1-.4,0,0-.9.2-1.1"/>
  <path class="cls-1" d="M11.29,4c.2.1.2.3.1.4-.2-.1-.1-.3-.1-.4"/>
  <path class="cls-1" d="M10.99,22.1c0-.2.1.1.1.2,0,.2-.1,0-.1-.2"/>
  <path class="cls-1" d="M10.89,17.2c.3.1-.1.4-.1.6-.2,0,.2-.3.1-.6"/>
  <path class="cls-1" d="M7.79,23.6c0-.2.1.1.1.2,0,.2-.1-.1-.1-.2"/>
  <polyline class="cls-1" points="7.79 18.9 7.79 19.1 7.59 19.1 7.59 18.9 7.79 18.9"/>
</svg>